<?xml version="1.0" standalone="no"?>
<!DOCTYPE svg PUBLIC "-//W3C//DTD SVG 20010904//EN"
 "http://www.w3.org/TR/2001/REC-SVG-20010904/DTD/svg10.dtd">
<svg version="1.0" xmlns="http://www.w3.org/2000/svg"
 width="260.000000pt" height="260.000000pt" viewBox="0 0 260.000000 260.000000"
 preserveAspectRatio="xMidYMid meet">
<metadata>
Created by potrace 1.11, written by Peter Selinger 2001-2013
</metadata>
<g transform="translate(0.000000,260.000000) scale(0.100000,-0.100000)"
fill="#000000" stroke="none">
<path d="M1159 2596 c-2 -2 -23 -6 -47 -10 -404 -55 -770 -314 -963 -680 -102
-195 -149 -402 -144 -636 1 -80 6 -156 9 -170 4 -14 9 -41 12 -60 25 -149 123
-374 221 -506 193 -258 449 -427 763 -501 154 -36 399 -40 545 -9 271 57 499
184 688 381 174 181 301 436 343 685 13 81 13 327 -1 410 -72 435 -347 799
-739 980 -82 38 -214 81 -291 96 -22 4 -47 9 -55 11 -19 6 -336 13 -341 9z
m-19 -70 c0 -3 -43 -34 -96 -71 -103 -71 -130 -93 -239 -196 l-70 -66 -52 41
c-41 33 -60 41 -88 40 -19 -1 -37 1 -40 5 -6 10 109 84 202 130 97 48 184 78
293 101 47 10 86 19 88 19 1 1 2 -1 2 -3z m435 -22 c39 -8 99 -25 135 -38 80
-27 88 -48 38 -100 l-33 -34 -80 60 c-44 33 -106 76 -137 95 -32 20 -58 37
-58 39 0 4 61 -6 135 -22z m-383 -95 c-32 -57 -78 -149 -102 -204 -24 -55 -47
-104 -51 -109 -7 -8 -190 23 -239 42 -24 9 -24 9 34 71 75 78 191 169 314 247
53 34 98 61 99 60 2 -2 -23 -49 -55 -107z m338 -12 c80 -54 82 -55 121 -90 14
-13 46 -40 72 -61 41 -33 47 -43 47 -76 l0 -38 -112 -17 c-62 -9 -114 -13
-115 -8 -2 5 -47 97 -101 205 l-97 197 55 -31 c30 -17 89 -54 130 -81z m-185
-16 c58 -104 138 -282 130 -289 -3 -3 -87 -7 -187 -10 l-181 -5 6 30 c11 55
171 372 183 361 1 -2 24 -41 49 -87z m740 -126 c16 -13 26 -27 23 -30 -3 -4
-28 -12 -55 -19 l-49 -13 21 43 c11 24 22 43 25 43 3 0 18 -11 35 -24z m-1620
-123 l7 -62 -32 -6 c-39 -8 -46 -25 -31 -72 10 -33 9 -39 -10 -54 -18 -16 -24
-16 -54 -4 -18 8 -36 12 -38 9 -3 -3 5 -32 17 -66 27 -73 27 -105 -1 -140
l-19 -25 -45 28 c-24 16 -54 37 -66 47 l-22 18 30 60 c48 94 113 186 185 264
37 39 68 70 70 68 2 -1 6 -31 9 -65z m1742 6 l41 -43 -5 -67 c-5 -65 -8 -70
-54 -116 -30 -31 -50 -59 -51 -75 -1 -15 -5 -23 -8 -19 -15 17 -140 233 -140
240 0 5 9 17 20 27 12 10 19 26 17 34 -2 12 15 22 63 38 36 12 67 22 70 22 3
1 24 -18 47 -41z m-391 -93 c8 -19 15 -58 15 -85 1 -32 6 -50 14 -50 14 0 61
34 88 64 18 21 18 21 37 -4 57 -75 176 -322 164 -341 -12 -20 -322 -135 -379
-141 -28 -3 -29 -1 -42 61 -7 35 -11 66 -9 69 3 2 14 -11 25 -29 24 -39 27
-33 35 71 3 41 9 102 12 136 7 68 -4 98 -61 169 -34 42 -59 84 -53 90 5 5 91
23 116 24 17 1 27 -8 38 -34z m-398 -22 c-22 -5 -23 -29 -4 -74 12 -31 12 -40
-7 -96 -17 -53 -25 -63 -44 -63 -28 0 -93 30 -94 44 -5 46 0 109 10 125 8 12
13 12 35 -2 35 -23 39 -22 34 14 -5 35 21 60 62 58 17 -1 19 -3 8 -6z m-1208
-319 c39 -28 48 -39 40 -49 -14 -17 -1 -25 25 -15 14 5 38 -2 78 -24 63 -34
63 -32 42 -126 -10 -42 -14 -302 -6 -352 4 -27 5 -48 1 -48 -14 0 -178 105
-250 159 l-75 58 3 74 c5 122 60 359 83 359 5 0 32 -16 59 -36z m206 -28 c25
-26 16 -38 -16 -21 -17 9 -28 20 -25 25 9 14 24 12 41 -4z m949 -83 c0 -12 11
-33 24 -47 l24 -26 -22 0 c-12 0 -33 12 -47 27 -21 23 -32 27 -67 24 l-42 -2
35 26 c44 33 95 32 95 -2z m300 -95 c5 -33 3 -38 -14 -38 -11 0 -26 -2 -34 -5
-12 -5 -12 3 -1 55 18 91 25 102 35 60 4 -19 11 -52 14 -72z m499 25 c15 -76
17 -119 9 -142 -6 -14 -5 -45 3 -81 9 -45 9 -76 -1 -143 -7 -47 -16 -90 -20
-97 -20 -32 -337 -158 -463 -185 -31 -6 -33 -5 -28 12 21 65 57 223 63 276 4
34 7 106 7 160 l1 98 70 20 c85 25 219 73 289 104 28 13 54 21 57 19 4 -2 10
-20 13 -41z m-1682 15 c-9 -9 -7 -17 10 -35 12 -13 23 -30 24 -38 1 -8 20 -60
42 -117 45 -115 78 -232 90 -324 10 -71 20 -70 -104 -13 -50 22 -84 44 -88 55
-33 110 -16 484 22 484 12 0 13 -3 4 -12z m1193 -254 c-1 -72 -8 -151 -18
-199 -17 -83 -52 -201 -65 -222 -15 -23 -358 -39 -452 -20 -25 5 -63 11 -84
13 -22 2 -43 7 -47 11 -10 11 -40 174 -34 183 3 5 39 20 80 35 42 16 78 32 81
36 8 13 44 10 89 -7 22 -8 48 -17 57 -20 9 -3 35 -32 58 -65 23 -32 43 -59 45
-59 26 0 30 15 27 109 -4 99 6 141 31 141 7 0 21 24 32 53 33 93 52 112 122
123 21 3 39 7 41 9 2 2 11 2 20 1 15 -3 17 -18 17 -122z m783 65 c51 -71 47
-84 -29 -91 -40 -4 -66 -16 -124 -56 l-72 -50 3 41 c1 23 3 47 3 52 1 6 30 32
66 58 36 27 65 53 65 59 0 13 30 48 39 47 3 0 25 -27 49 -60z m-2141 -285 c81
-48 93 -59 103 -92 5 -20 10 -41 10 -45 0 -26 86 -223 124 -285 25 -40 42 -72
39 -72 -22 0 -214 118 -295 181 -134 105 -167 140 -183 195 -22 76 -36 149
-42 222 l-5 63 78 -57 c44 -31 120 -81 171 -110z m453 -108 c8 -37 5 -42 -19
-27 -9 6 -11 18 -6 40 8 38 14 35 25 -13z m-182 -27 c54 -22 112 -54 131 -72
29 -28 33 -29 26 -9 -3 12 -3 22 0 22 18 0 43 -22 49 -44 3 -13 34 -62 67
-107 70 -94 116 -186 122 -241 2 -21 2 -39 0 -42 -5 -5 -115 24 -211 55 -56
19 -66 26 -106 82 -61 85 -121 200 -156 296 -30 81 -35 101 -25 101 3 0 49
-18 103 -41z m1511 1 c-12 -23 -18 -47 -14 -59 4 -12 -6 -43 -26 -83 -36 -72
-131 -218 -157 -241 -20 -18 -98 -48 -211 -81 l-82 -24 -48 41 -49 41 21 41
c11 22 39 85 62 140 l42 100 104 26 c118 31 222 67 312 110 34 16 63 29 64 29
2 0 -7 -18 -18 -40z m-773 -152 c55 0 132 3 172 7 39 4 72 5 72 2 0 -7 -97
-217 -103 -223 -3 -3 -31 13 -64 35 -56 38 -60 39 -105 30 -26 -6 -63 -21 -81
-34 -19 -12 -39 -20 -45 -16 -12 7 -82 176 -82 198 0 12 13 13 69 8 38 -3 113
-7 167 -7z m-777 -250 c84 -42 136 -76 160 -102 20 -22 64 -67 99 -100 l63
-61 -30 -8 c-28 -7 -31 -11 -31 -47 0 -22 -2 -40 -5 -40 -3 0 -31 13 -62 28
-203 99 -386 272 -516 488 -20 34 -37 64 -37 67 0 3 53 -32 118 -79 64 -46
173 -112 241 -146z m1620 164 c9 -5 -25 -29 -91 -66 l-67 -37 47 80 47 80 30
-27 c16 -15 32 -28 34 -30z m-1153 -44 c12 -36 27 -76 34 -89 l13 -24 -34 26
c-61 47 -106 132 -79 149 28 17 44 2 66 -62z m1247 -51 l30 -36 -28 -33 c-104
-125 -247 -247 -352 -301 -29 -16 -31 -15 -58 13 -16 17 -36 32 -44 35 -9 3
-22 14 -29 25 -12 19 -6 28 70 106 66 68 99 93 163 124 44 22 107 55 140 75
33 19 64 33 69 32 6 -2 23 -20 39 -40z m-474 -174 c-6 -10 -21 -26 -34 -35
-20 -16 -24 -16 -45 -1 -23 16 -23 16 31 34 30 10 55 18 57 18 1 1 -3 -7 -9
-16z m-862 -33 c29 0 29 -17 0 -52 l-22 -28 -35 34 c-19 18 -46 45 -59 60
l-25 26 59 -20 c32 -11 69 -20 82 -20z"/>
<path d="M2116 183 c7 -38 11 -39 16 -3 3 20 0 30 -8 30 -8 0 -11 -9 -8 -27z"/>
<path d="M2150 198 c0 -7 6 -21 14 -30 12 -16 13 -16 28 1 9 11 12 24 8 31 -6
9 -10 8 -19 -6 -9 -17 -10 -17 -11 -1 0 9 -4 17 -10 17 -5 0 -10 -6 -10 -12z"/>
<path d="M2140 159 c0 -5 5 -7 10 -4 6 3 10 8 10 11 0 2 -4 4 -10 4 -5 0 -10
-5 -10 -11z"/>
</g>
</svg>
